<svg xmlns="http://www.w3.org/2000/svg" viewBox="0 0 1200 400" fill="none">
  <!-- Mozilla Logo -->
  <path d="M50 100 L50 300 L150 300 L150 200 L200 300 L250 300 L250 200 L300 300 L350 300 L350 100 L300 100 L300 250 L250 150 L200 150 L200 250 L150 100 Z" fill="currentColor"/>
  <path d="M400 100 Q400 100 450 100 Q500 100 500 150 Q500 200 450 200 Q400 200 400 150 Z M450 250 Q500 250 500 200 Q500 250 450 250 Q400 250 400 200 L400 250 Q400 300 450 300 Q500 300 500 250" fill="currentColor"/>
  <path d="M550 300 L600 300 L700 150 L700 300 L750 300 L750 100 L700 100 L600 250 L600 100 L550 100 Z" fill="currentColor"/>
  <path d="M800 100 L800 300 L950 300 L950 250 L850 250 L850 100 Z" fill="currentColor"/>
  <path d="M1000 100 L1000 300 L1150 300 L1150 250 L1050 250 L1050 100 Z" fill="currentColor"/>
</svg>
